<?xml version="1.0" encoding="UTF-8"?><svg id="Layer_2" xmlns="http://www.w3.org/2000/svg" viewBox="0 0 653.37 510.52"><defs><style>.cls-1{fill:#f2f1ed;fill-rule:evenodd;}</style></defs><g id="Layer_1-2"><path class="cls-1" d="m653.37,460.7c-.66-.08-.99.65-1.15,0-.21-5.91-.09-9.72-1.53-14.56,1.62-.55-.74-1.88.77-3.06-.33-.46-.58-.95-.82-1.47h.1V0H0v487.91c2.6.45,4.86-.02,6.9,1.53,5.75-6.09,10.37,1.73,18.01.77,2.77,3.47,5.17,4.16,10.34,3.07,1.18,3.28,7.17,2.06,10.35,1.15v.77c3.37-2.46,6.06,1.41,9.2,2.3,4.57,1.3,10.11.95,11.5,4.6,2.22-1.05,5.03-.75,4.99-2.3.18,1.09,1.45,1.1,2.3,1.53.56-3.43,6.61-3.59,9.58-2.3-.01-2.97,4.39.11,4.98-2.68h3.06c3.57-3.37,9.91-1.59,14.18-4.98,2.07,1.8,7.61.91,11.5,1.53.85-5.23,4.52-3.71,7.66-4.21v1.15c3.71-.88,6.09-2.48,10.73-1.91.53-.49.17-1.88,1.15-1.91,1.62,1.27,3.79-1.73,4.6.76,2.65-1.5,5.36,3.23,8.81,3.45,0-1.14.69-1.61,1.53-1.92,1.35,1.4,4.57-.86,6.13,1.53,1.21.18.87-1.17,2.3-.77,4.37,1.92,6.68-3.12,9.58-2.68.36-2.2,2.42-2.69,2.68-4.98,1.17.28,1.4-.39,2.3-.38,1.74-4.58,6.02-2.84,9.58-4.98,4.62,1.03,8.19-.49,13.79,0,3.92,2.09,10.87,1.14,15.33,2.3.64.89,1.43,1.63,1.53,3.06,4.09-.41,7.17,3.24,11.5,3.84.56-.72.56-1.99,1.53-2.3,3.5,1.85,7.67-.57,10.73,2.3,1.71-.46,2.25-2.1,3.83-2.68-.07.83.32,1.22,1.15,1.15,5.54.45,12.74-5.62,16.86-1.15,2.65-2.49,7.76-5.87,11.88-3.45,1.83-1.81,6.2-.3,7.67,1.15,3.58,1.71,8.46-3.3,11.11.38,4.61.25,5.9,3.81,11.88,2.68.46-1.2,1.9-1.42,3.45-1.53,1.04,4.33,5.15-.66,6.52,1.53,2.06-3.25,6.99-.07,9.96.39,2.73-1.66,7.32-.69,10.73.76,4.82-1.2,9.62-.95,13.03,3.06,2.58-1.07,4.54.96,5.75-1.15,2.39,2.06,10.39,3.24,13.03.38,3.09,2.25,10.95,2.47,14.18,0,2.29.71,4.77-.21,6.52-1.15.93.22.82,1.48,2.3,1.15.99-.03.55-1.5,1.53-1.53,5.77,3.2,12.67,2.36,19.54,0,7.06,3.66,14.27,3.32,22.99,3.06,1.01.52,1.45,1.61,2.68,1.92-.03-.54-.06-1.09.38-1.15,2.83,1.89,6.62,3.57,9.58,1.54,6.24,4.27,17.51,1.89,22.23,7.28,3.52-1.59,6.9-3.56,9.58-.38,2.01-2.96,4.66-4.15,8.05-4.98,5.32,1.22,12.18,1.46,15.71,3.45.53-.49.17-1.88,1.15-1.91,4.97,4.1,10.95,3.36,16.86,6.9,1.3-.23,2.53-.54,3.45-1.15,1.39.52,2.78,1.05,3.83,1.91,4.37-3.18,7.64,3.15,12.26,4.21-.15-1.55,2.54-.57,1.92.77,4.53,1,11.1,5.06,16.48,1.15.98.81,2.41,1.16,3.83,1.53,1.22-.87,3.76-.88,5.75,0,4.92-2.87,8.38-.47,12.65,1.15,1-1.18,3.36-2.01,4.98-.77,1.61-2.11,4.72-.37,6.13-2.68,6.39,1.36,14.14,3.33,21.07,1.53-.15-1.95,1.27-2.31,2.3-3.06,2.14-5.36,2.04-10.71,5.36-14.56-.57-.32-.56-1.23-.77-1.92,1.95.34.87-1.42,2.68-.77.54-1.24.16-3.42,1.92-3.45.46.63,4.63.88,5.36-1.15,4.77-.04,2.42-4.88,6.9-4.99,3.43,1.54,7.4,1.03,10.73,1.92,2,.53,1.93,1.99,4.22,1.53,1.13-.22,1.08-2.24,3.06-1.53.08-6.83-1.75-13.29.77-19.93Z"/></g></svg>