<?xml version="1.0" encoding="UTF-8"?><svg id="Layer_2" xmlns="http://www.w3.org/2000/svg" viewBox="0 0 362.7 288.62" preserveAspectRatio="none"><defs><style>.cls-1{fill:#f2f1ed;}</style></defs><g id="Layer_1-2"><polygon class="cls-1" points="357.68 .44 349.75 0 341.74 .14 333.73 .07 325.72 .77 317.7 .19 309.69 .28 301.68 .21 293.66 .29 285.65 1.15 277.64 1.02 269.62 .37 261.61 .85 253.6 1.33 245.59 .76 237.57 .91 229.56 .84 221.55 1.14 213.53 .69 205.51 1.41 197.5 1.16 189.48 1.41 181.46 .6 173.44 1.18 165.43 1.36 157.41 .9 149.39 1.48 141.36 1.12 133.34 .84 125.33 1.54 117.31 .95 109.29 .63 101.27 1.19 93.25 1.28 85.24 .72 77.22 .97 69.2 1.22 61.18 1.23 53.16 1.23 45.14 .73 37.13 1.02 29.11 .95 21.1 .58 13.08 .74 5.29 .2 5.16 8.03 4.57 15.97 4.03 23.91 3.69 31.86 3.49 39.81 4.01 47.78 3.59 55.72 3.59 63.68 3.08 71.62 2.95 79.57 2.37 87.51 2.13 95.46 2.32 103.42 2.56 111.38 2.33 119.33 1.78 127.28 1.84 135.24 1.23 143.19 1.32 151.14 1.26 159.09 1.05 167.05 .88 175 1.69 182.96 1.59 190.92 1.08 198.87 .65 206.82 1.28 214.78 .35 222.73 .35 230.69 .22 238.64 .2 246.6 .76 254.56 .02 262.52 .88 270.49 0 278.44 .67 286.06 8.38 286.24 16.42 286.63 24.47 286.56 32.51 287.35 40.57 287.05 48.62 287.28 56.67 287.51 64.72 287.76 72.77 287.99 80.81 288.21 88.86 288.06 96.91 288.27 104.96 288.15 113.01 287.88 121.06 288.55 129.11 288.06 137.17 288.01 145.22 288.14 153.27 288.09 161.32 288.36 169.37 288.62 177.42 288.56 185.47 288.01 193.52 287.97 201.57 287.92 209.63 287.73 217.69 288.41 225.74 287.74 233.8 287.79 241.85 287.63 249.91 287.88 257.97 287.75 266.01 286.89 274.06 286.86 282.1 286.25 290.17 286.57 298.23 286.48 306.26 285.53 314.32 285.57 322.38 285.44 330.45 285.5 338.48 284.69 346.52 283.93 354.58 283.75 362.33 283.42 362.62 275.42 362.2 267.34 362.7 259.25 361.76 251.17 361.57 243.09 361.54 235 361.68 226.9 361.46 218.82 361.62 210.72 361.53 202.64 361.57 194.55 360.83 186.48 360.4 178.39 360.79 170.3 360.56 162.22 360.89 154.12 360.37 146.04 360.26 137.95 360.4 129.86 359.39 121.79 360.09 113.69 359.73 105.6 359.77 97.51 358.8 89.43 359.17 81.33 359.24 73.24 359.21 65.15 358.26 57.07 358.25 48.98 358.21 40.89 358.2 32.79 357.77 24.71 358.38 16.6 358.4 8.5 357.68 .44"/></g></svg>