<?xml version="1.0" encoding="UTF-8"?><svg id="Layer_2" xmlns="http://www.w3.org/2000/svg" viewBox="0 0 157.69 218.25" preserveAspectRatio="none"><g id="Layer_1-2"><path d="m145.46,218.25c-16.57,0-16.57-2.75-33.14-2.75s-16.57,1.35-33.14,1.35c-16.57,0-16.57-2.11-33.14-2.11-16.57,0-16.57,1.27-33.14,1.27-6.28,0-11.33-4.82-11.33-11.1,0-19.23,1.92-19.23,1.92-38.46,0-19.23-.68-19.23-.68-38.46,0-19.23-2.8-19.23-2.8-38.46,0-19.23,2.8-19.23,2.8-38.47,0-19.23-.63-19.23-.63-38.47C2.17,6.3,6.61,3.21,12.89,3.21c16.57,0,16.57-.36,33.14-.36s16.57-1.93,33.14-1.93,16.57.24,33.14.24,16.57-1.17,33.14-1.17c6.28,0,12.16,6.3,12.16,12.58,0,19.23-.3,19.23-.3,38.46,0,19.23.36,19.23.36,38.46,0,19.23-1.41,19.23-1.41,38.46q0,19.23.03,38.47c0,19.23-1.48,19.23-1.48,38.47,0,6.28-3.09,13.34-9.37,13.34Z"/></g></svg>