<?xml version="1.0" encoding="utf-8"?>
<!-- Generator: Adobe Illustrator 21.1.0, SVG Export Plug-In . SVG Version: 6.00 Build 0)  -->
<svg version="1.1" id="Layer_1" xmlns="http://www.w3.org/2000/svg" xmlns:xlink="http://www.w3.org/1999/xlink" x="0px" y="0px"
	 viewBox="0 0 104.3 160.4" style="enable-background:new 0 0 104.3 160.4;" xml:space="preserve">
<path d="M98.2,106.4c12.2-16.2,2.4-51,2-52.4c-0.2-0.8-1-1.4-2-1.4H63c-0.8,0-1.6,0.6-2,1.4c-0.4,1.4-10,36.2,2.2,52.4
	c3.6,4.8,8.8,7.4,15.4,8v42H67.2c-1.2,0-2,0.8-2,2s0.8,2,2,2h26.6c1.2,0,2-0.8,2-2s-0.8-2-2-2H82.4v-42.2
	C89.4,113.8,94.6,111.2,98.2,106.4z M64.4,56.4h32.2c0.6,2.6,2,8.2,2.8,14.8c-1.8,0.6-3.8,1-7,1c-4.6,0-7-1-9.6-2.2
	c-2.8-1.2-5.8-2.4-11.2-2.4c-4.4,0-7.2,0.8-9.6,1.8C62.8,63.6,64,58.8,64.4,56.4z M66.4,103.8c-5.6-7.2-6-19.4-5-29.8l0.4-0.2
	c2.6-1.2,5-2.2,9.6-2.2c4.6,0,7,1,9.6,2.2c2.8,1.2,5.8,2.4,11.2,2.4c3.2,0,5.6-0.4,7.4-1c0.8,10,0.4,21.6-4.8,28.6
	c-3.2,4.4-8,6.4-14.4,6.4C74.4,110.4,69.6,108.2,66.4,103.8z"/>
<path d="M8.2,52.2C3,57.2,0,64.6,0,72.2v81.4c0,3.6,2.8,6.6,6.2,6.6h36.4c3.4,0,6.2-3,6.2-6.6V72c0-7.4-2.8-14.6-7.8-19.6
	c-4.6-4.8-7.2-10.8-7.2-17.4V17c1.2-0.8,2.2-2,2.2-3.6V4.2C36,2,34.2,0,31.8,0h-15c-2.2,0-4.2,1.8-4.2,4.2v9.2c0,1.8,1,3.2,2.6,3.8
	v17C15.4,41.2,12.8,47.6,8.2,52.2z M44.8,140.2H4v-56h40.8V140.2z M42.6,156.2H6.2C5,156.2,4,155,4,153.6v-9.4h40.8v9.4
	C44.8,155,43.8,156.2,42.6,156.2z M38.2,55.4c4.2,4.4,6.6,10.4,6.6,16.8v8H4v-8c0-6.6,2.6-12.8,7-17.2c4-4,6.6-9,7.8-14.8h11.6
	C31.4,45.8,34.2,51,38.2,55.4z M30,17.6v17.6c0,0.4,0,0.6,0,1H19.2c0-0.6,0-1.2,0-1.8V17.6H30z M16.8,4.4
	C16.8,4.2,16.8,4.2,16.8,4.4L32,4.2c0,0,0.2,0,0.2,0.2v9.2c0,0,0,0.2-0.2,0.2H16.8c0,0-0.2,0-0.2-0.2V4.4H16.8z"/>
</svg>
